<svg width="107" height="53" viewBox="0 0 107 53" fill="none" xmlns="http://www.w3.org/2000/svg">
<path d="M11.4496 47V29.5455H17.3473C18.7109 29.5455 19.8303 29.7784 20.7053 30.2443C21.5803 30.7045 22.228 31.3381 22.6484 32.1449C23.0689 32.9517 23.2791 33.8693 23.2791 34.8977C23.2791 35.9261 23.0689 36.8381 22.6484 37.6335C22.228 38.429 21.5831 39.054 20.7138 39.5085C19.8445 39.9574 18.7337 40.1818 17.3814 40.1818H12.6087V38.2727H17.3132C18.245 38.2727 18.995 38.1364 19.5632 37.8636C20.1371 37.5909 20.5518 37.2045 20.8075 36.7045C21.0689 36.1989 21.1996 35.5966 21.1996 34.8977C21.1996 34.1989 21.0689 33.5881 20.8075 33.0653C20.5462 32.5426 20.1286 32.1392 19.5547 31.8551C18.9808 31.5653 18.2223 31.4205 17.2791 31.4205H13.5632V47H11.4496ZM19.6655 39.1591L23.9609 47H21.5064L17.2791 39.1591H19.6655ZM30.3807 47.3068C29.5511 47.3068 28.7983 47.1506 28.1222 46.8381C27.446 46.5199 26.9091 46.0625 26.5114 45.4659C26.1136 44.8636 25.9148 44.1364 25.9148 43.2841C25.9148 42.5341 26.0625 41.9261 26.358 41.4602C26.6534 40.9886 27.0483 40.6193 27.5426 40.3523C28.0369 40.0852 28.5824 39.8864 29.179 39.7557C29.7813 39.6193 30.3864 39.5114 30.9943 39.4318C31.7898 39.3295 32.4347 39.2528 32.929 39.2017C33.429 39.1449 33.7926 39.0511 34.0199 38.9205C34.2528 38.7898 34.3693 38.5625 34.3693 38.2386V38.1705C34.3693 37.3295 34.1392 36.6761 33.679 36.2102C33.2244 35.7443 32.5341 35.5114 31.608 35.5114C30.6477 35.5114 29.8949 35.7216 29.3494 36.142C28.804 36.5625 28.4205 37.0114 28.1989 37.4886L26.2898 36.8068C26.6307 36.0114 27.0852 35.392 27.6534 34.9489C28.2273 34.5 28.8523 34.1875 29.5284 34.0114C30.2102 33.8295 30.8807 33.7386 31.5398 33.7386C31.9602 33.7386 32.4432 33.7898 32.9886 33.892C33.5398 33.9886 34.071 34.1903 34.5824 34.4972C35.0994 34.804 35.5284 35.267 35.8693 35.8864C36.2102 36.5057 36.3807 37.3352 36.3807 38.375V47H34.3693V45.2273H34.267C34.1307 45.5114 33.9034 45.8153 33.5852 46.1392C33.267 46.4631 32.8438 46.7386 32.3153 46.9659C31.7869 47.1932 31.142 47.3068 30.3807 47.3068ZM30.6875 45.5C31.483 45.5 32.1534 45.3438 32.6989 45.0312C33.25 44.7188 33.6648 44.3153 33.9432 43.821C34.2273 43.3267 34.3693 42.8068 34.3693 42.2614V40.4205C34.2841 40.5227 34.0966 40.6165 33.8068 40.7017C33.5227 40.7812 33.1932 40.8523 32.8182 40.9148C32.4489 40.9716 32.0881 41.0227 31.7358 41.0682C31.3892 41.108 31.108 41.142 30.892 41.1705C30.3693 41.2386 29.8807 41.3494 29.4261 41.5028C28.9773 41.6506 28.6136 41.875 28.3352 42.1761C28.0625 42.4716 27.9261 42.875 27.9261 43.3864C27.9261 44.0852 28.1847 44.6136 28.7017 44.9716C29.2244 45.3239 29.8864 45.5 30.6875 45.5ZM42.0632 39.125V47H40.0518V33.9091H41.995V35.9545H42.1655C42.4723 35.2898 42.9382 34.7557 43.5632 34.3523C44.1882 33.9432 44.995 33.7386 45.9837 33.7386C46.87 33.7386 47.6456 33.9205 48.3104 34.2841C48.9751 34.642 49.4922 35.1875 49.8615 35.9205C50.2308 36.6477 50.4155 37.5682 50.4155 38.6818V47H48.4041V38.8182C48.4041 37.7898 48.1371 36.9886 47.603 36.4148C47.0689 35.8352 46.3359 35.5455 45.4041 35.5455C44.7621 35.5455 44.1882 35.6847 43.6825 35.9631C43.1825 36.2415 42.7876 36.6477 42.4979 37.1818C42.2081 37.7159 42.0632 38.3636 42.0632 39.125ZM55.9659 42.2273L55.9318 39.7386H56.3409L62.0682 33.9091H64.5568L58.4545 40.0795H58.2841L55.9659 42.2273ZM54.0909 47V29.5455H56.1023V47H54.0909ZM62.4091 47L57.2955 40.5227L58.7273 39.125L64.9659 47H62.4091ZM67.1456 47V33.9091H69.157V47H67.1456ZM68.1683 31.7273C67.7763 31.7273 67.4382 31.5938 67.1541 31.3267C66.8757 31.0597 66.7365 30.7386 66.7365 30.3636C66.7365 29.9886 66.8757 29.6676 67.1541 29.4006C67.4382 29.1335 67.7763 29 68.1683 29C68.5604 29 68.8956 29.1335 69.174 29.4006C69.4581 29.6676 69.6001 29.9886 69.6001 30.3636C69.6001 30.7386 69.4581 31.0597 69.174 31.3267C68.8956 31.5938 68.5604 31.7273 68.1683 31.7273ZM74.8523 39.125V47H72.8409V33.9091H74.7841V35.9545H74.9545C75.2614 35.2898 75.7273 34.7557 76.3523 34.3523C76.9773 33.9432 77.7841 33.7386 78.7727 33.7386C79.6591 33.7386 80.4347 33.9205 81.0994 34.2841C81.7642 34.642 82.2813 35.1875 82.6506 35.9205C83.0199 36.6477 83.2045 37.5682 83.2045 38.6818V47H81.1932V38.8182C81.1932 37.7898 80.9261 36.9886 80.392 36.4148C79.858 35.8352 79.125 35.5455 78.1932 35.5455C77.5511 35.5455 76.9773 35.6847 76.4716 35.9631C75.9716 36.2415 75.5767 36.6477 75.2869 37.1818C74.9972 37.7159 74.8523 38.3636 74.8523 39.125ZM92.1641 52.1818C91.1925 52.1818 90.3572 52.0568 89.6584 51.8068C88.9595 51.5625 88.3771 51.2386 87.9112 50.8352C87.451 50.4375 87.0845 50.0114 86.8118 49.5568L88.4141 48.4318C88.5959 48.6705 88.826 48.9432 89.1044 49.25C89.3828 49.5625 89.7635 49.8324 90.2464 50.0597C90.7351 50.2926 91.3743 50.4091 92.1641 50.4091C93.2209 50.4091 94.093 50.1534 94.7805 49.642C95.468 49.1307 95.8118 48.3295 95.8118 47.2386V44.5795H95.6413C95.4936 44.8182 95.2834 45.1136 95.0107 45.4659C94.7436 45.8125 94.3572 46.1222 93.8516 46.3949C93.3516 46.6619 92.6754 46.7955 91.8232 46.7955C90.7663 46.7955 89.8175 46.5455 88.9766 46.0455C88.1413 45.5455 87.4794 44.8182 86.9908 43.8636C86.5078 42.9091 86.2663 41.75 86.2663 40.3864C86.2663 39.0455 86.5021 37.8778 86.9737 36.8835C87.4453 35.8835 88.1016 35.1108 88.9425 34.5653C89.7834 34.0142 90.755 33.7386 91.8572 33.7386C92.7095 33.7386 93.3857 33.8807 93.8857 34.1648C94.3913 34.4432 94.7777 34.7614 95.0447 35.1193C95.3175 35.4716 95.5277 35.7614 95.6754 35.9886H95.88V33.9091H97.8232V47.375C97.8232 48.5 97.5675 49.4148 97.0561 50.1193C96.5504 50.8295 95.8686 51.3494 95.0107 51.679C94.1584 52.0142 93.2095 52.1818 92.1641 52.1818ZM92.0959 44.9886C92.9027 44.9886 93.5845 44.804 94.1413 44.4347C94.6982 44.0653 95.1214 43.5341 95.4112 42.8409C95.701 42.1477 95.8459 41.3182 95.8459 40.3523C95.8459 39.4091 95.7038 38.5767 95.4197 37.8551C95.1357 37.1335 94.7152 36.5682 94.1584 36.1591C93.6016 35.75 92.9141 35.5455 92.0959 35.5455C91.2436 35.5455 90.5334 35.7614 89.9652 36.1932C89.4027 36.625 88.9794 37.2045 88.6953 37.9318C88.4169 38.6591 88.2777 39.4659 88.2777 40.3523C88.2777 41.2614 88.4197 42.0653 88.7038 42.7642C88.9936 43.4574 89.4197 44.0028 89.9822 44.4006C90.5504 44.7926 91.255 44.9886 92.0959 44.9886Z" fill="white"/>
<path d="M11.4496 47H10.4496V48H11.4496V47ZM11.4496 29.5455V28.5455H10.4496V29.5455H11.4496ZM20.7053 30.2443L20.2353 31.127L20.2397 31.1294L20.7053 30.2443ZM22.6484 32.1449L21.7616 32.607L21.7616 32.607L22.6484 32.1449ZM22.6484 37.6335L21.7643 37.1662L21.7643 37.1662L22.6484 37.6335ZM20.7138 39.5085L21.1726 40.3971L21.1771 40.3947L20.7138 39.5085ZM12.6087 40.1818H11.6087V41.1818H12.6087V40.1818ZM12.6087 38.2727V37.2727H11.6087V38.2727H12.6087ZM19.5632 37.8636L19.134 36.9604L19.1305 36.9621L19.5632 37.8636ZM20.8075 36.7045L19.9192 36.2454L19.9172 36.2493L20.8075 36.7045ZM19.5547 31.8551L19.1039 32.7478L19.111 32.7513L19.5547 31.8551ZM13.5632 31.4205V30.4205H12.5632V31.4205H13.5632ZM13.5632 47V48H14.5632V47H13.5632ZM19.6655 39.1591L20.5425 38.6786L20.2579 38.1591H19.6655V39.1591ZM23.9609 47V48H25.649L24.838 46.5195L23.9609 47ZM21.5064 47L20.6262 47.4746L20.9095 48H21.5064V47ZM17.2791 39.1591V38.1591H15.6039L16.3989 39.6336L17.2791 39.1591ZM12.4496 47V29.5455H10.4496V47H12.4496ZM11.4496 30.5455H17.3473V28.5455H11.4496V30.5455ZM17.3473 30.5455C18.6055 30.5455 19.549 30.7616 20.2353 31.127L21.1752 29.3616C20.1115 28.7952 18.8164 28.5455 17.3473 28.5455V30.5455ZM20.2397 31.1294C20.9509 31.5034 21.4435 31.9965 21.7616 32.607L23.5352 31.6827C23.0125 30.6796 22.2096 29.9057 21.1708 29.3593L20.2397 31.1294ZM21.7616 32.607C22.0985 33.2535 22.2791 34.009 22.2791 34.8977H24.2791C24.2791 33.7296 24.0393 32.6499 23.5352 31.6827L21.7616 32.607ZM22.2791 34.8977C22.2791 35.7867 22.0984 36.5342 21.7643 37.1662L23.5325 38.1008C24.0394 37.1419 24.2791 36.0655 24.2791 34.8977H22.2791ZM21.7643 37.1662C21.4471 37.7665 20.9573 38.2527 20.2504 38.6224L21.1771 40.3947C22.2089 39.8552 23.0089 39.0915 23.5325 38.1008L21.7643 37.1662ZM20.255 38.62C19.5712 38.9731 18.6318 39.1818 17.3814 39.1818V41.1818C18.8356 41.1818 20.1177 40.9417 21.1726 40.3971L20.255 38.62ZM17.3814 39.1818H12.6087V41.1818H17.3814V39.1818ZM13.6087 40.1818V38.2727H11.6087V40.1818H13.6087ZM12.6087 39.2727H17.3132V37.2727H12.6087V39.2727ZM17.3132 39.2727C18.329 39.2727 19.2438 39.1262 19.9959 38.7652L19.1305 36.9621C18.7462 37.1466 18.161 37.2727 17.3132 37.2727V39.2727ZM19.9924 38.7668C20.7377 38.4127 21.329 37.8812 21.6979 37.1598L19.9172 36.2493C19.7747 36.5279 19.5365 36.7692 19.134 36.9604L19.9924 38.7668ZM21.6959 37.1637C22.0455 36.4873 22.1996 35.7205 22.1996 34.8977H20.1996C20.1996 35.4727 20.0923 35.9104 19.9192 36.2454L21.6959 37.1637ZM22.1996 34.8977C22.1996 34.0737 22.0451 33.3043 21.702 32.6181L19.9131 33.5126C20.0927 33.8718 20.1996 34.324 20.1996 34.8977H22.1996ZM21.702 32.6181C21.3338 31.8818 20.7476 31.3298 19.9983 30.9589L19.111 32.7513C19.5095 32.9486 19.7585 33.2034 19.9131 33.5126L21.702 32.6181ZM20.0054 30.9625C19.2419 30.5769 18.3113 30.4205 17.2791 30.4205V32.4205C18.1333 32.4205 18.7198 32.5538 19.1039 32.7478L20.0054 30.9625ZM17.2791 30.4205H13.5632V32.4205H17.2791V30.4205ZM12.5632 31.4205V47H14.5632V31.4205H12.5632ZM13.5632 46H11.4496V48H13.5632V46ZM18.7885 39.6395L23.0839 47.4805L24.838 46.5195L20.5425 38.6786L18.7885 39.6395ZM23.9609 46H21.5064V48H23.9609V46ZM22.3866 46.5254L18.1593 38.6845L16.3989 39.6336L20.6262 47.4746L22.3866 46.5254ZM17.2791 40.1591H19.6655V38.1591H17.2791V40.1591ZM28.1222 46.8381L27.6964 47.7429L27.7026 47.7458L28.1222 46.8381ZM26.5114 45.4659L25.6769 46.017L25.6793 46.0206L26.5114 45.4659ZM26.358 41.4602L27.2025 41.9958L27.2054 41.9911L26.358 41.4602ZM29.179 39.7557L29.393 40.7325L29.3998 40.731L29.179 39.7557ZM30.9943 39.4318L30.8668 38.44L30.8646 38.4403L30.9943 39.4318ZM32.929 39.2017L33.0319 40.1964L33.0419 40.1953L32.929 39.2017ZM34.0199 38.9205L33.5306 38.0483L33.5214 38.0535L34.0199 38.9205ZM33.679 36.2102L32.9632 36.9086L32.9675 36.913L33.679 36.2102ZM29.3494 36.142L29.9599 36.9341L29.9599 36.9341L29.3494 36.142ZM28.1989 37.4886L27.8625 38.4304L28.7217 38.7372L29.1059 37.9097L28.1989 37.4886ZM26.2898 36.8068L25.3706 36.4129L24.9516 37.3907L25.9534 37.7486L26.2898 36.8068ZM27.6534 34.9489L28.2684 35.7374L28.2695 35.7365L27.6534 34.9489ZM29.5284 34.0114L29.7805 34.9791L29.7861 34.9776L29.5284 34.0114ZM32.9886 33.892L32.8043 34.875L32.816 34.877L32.9886 33.892ZM34.5824 34.4972L34.0679 35.3547L34.0721 35.3571L34.5824 34.4972ZM35.8693 35.8864L34.9933 36.3686L34.9933 36.3686L35.8693 35.8864ZM36.3807 47V48H37.3807V47H36.3807ZM34.3693 47H33.3693V48H34.3693V47ZM34.3693 45.2273H35.3693V44.2273H34.3693V45.2273ZM34.267 45.2273V44.2273H33.6378L33.3655 44.7945L34.267 45.2273ZM33.5852 46.1392L34.2986 46.84L34.2986 46.84L33.5852 46.1392ZM32.3153 46.9659L31.9202 46.0473L32.3153 46.9659ZM32.6989 45.0312L32.2056 44.1613L32.2018 44.1636L32.6989 45.0312ZM33.9432 43.821L33.0761 43.3227L33.0719 43.3303L33.9432 43.821ZM34.3693 40.4205H35.3693V37.6584L33.6011 39.7803L34.3693 40.4205ZM33.8068 40.7017L34.0765 41.6647L34.089 41.6611L33.8068 40.7017ZM32.8182 40.9148L32.9703 41.9032L32.9826 41.9012L32.8182 40.9148ZM31.7358 41.0682L31.8498 42.0618L31.8638 42.06L31.7358 41.0682ZM30.892 41.1705L31.0214 42.1621L31.0225 42.1619L30.892 41.1705ZM29.4261 41.5028L29.7388 42.4527L29.7459 42.4503L29.4261 41.5028ZM28.3352 42.1761L27.601 41.4973L27.6004 41.4979L28.3352 42.1761ZM28.7017 44.9716L28.1324 45.7938L28.1429 45.8009L28.7017 44.9716ZM30.3807 46.3068C29.6794 46.3068 29.0721 46.1755 28.5417 45.9303L27.7026 47.7458C28.5245 48.1257 29.4228 48.3068 30.3807 48.3068V46.3068ZM28.548 45.9332C28.0293 45.6892 27.6358 45.3497 27.3434 44.9112L25.6793 46.0206C26.1824 46.7753 26.8627 47.3506 27.6964 47.7429L28.548 45.9332ZM27.3458 44.9148C27.0744 44.5038 26.9148 43.9765 26.9148 43.2841H24.9148C24.9148 44.2962 25.1529 45.2235 25.6769 46.017L27.3458 44.9148ZM26.9148 43.2841C26.9148 42.6577 27.0389 42.2537 27.2025 41.9958L25.5134 40.9247C25.0861 41.5986 24.9148 42.4105 24.9148 43.2841H26.9148ZM27.2054 41.9911C27.4081 41.6675 27.6742 41.4178 28.0179 41.2321L27.0673 39.4725C26.4224 39.8208 25.8987 40.3097 25.5105 40.9293L27.2054 41.9911ZM28.0179 41.2321C28.4233 41.0131 28.8797 40.8449 29.393 40.7325L28.965 38.7788C28.2851 38.9278 27.6506 39.1573 27.0673 39.4725L28.0179 41.2321ZM29.3998 40.731C29.9722 40.6014 30.5469 40.4989 31.1241 40.4234L30.8646 38.4403C30.2258 38.5238 29.5903 38.6372 28.9582 38.7804L29.3998 40.731ZM31.1218 40.4237C31.9134 40.3219 32.5492 40.2463 33.0319 40.1964L32.8261 38.207C32.3201 38.2594 31.6661 38.3372 30.8668 38.44L31.1218 40.4237ZM33.0419 40.1953C33.5757 40.1346 34.1078 40.0234 34.5184 39.7874L33.5214 38.0535C33.4774 38.0788 33.2822 38.1551 32.8161 38.2081L33.0419 40.1953ZM34.5091 39.7926C35.1296 39.4445 35.3693 38.8333 35.3693 38.2386H33.3693C33.3693 38.2834 33.3611 38.2562 33.392 38.1959C33.4076 38.1655 33.4295 38.1342 33.4572 38.1058C33.4846 38.0777 33.5112 38.0592 33.5306 38.0483L34.5091 39.7926ZM35.3693 38.2386V38.1705H33.3693V38.2386H35.3693ZM35.3693 38.1705C35.3693 37.1445 35.084 36.2096 34.3904 35.5075L32.9675 36.913C33.1944 37.1427 33.3693 37.5146 33.3693 38.1705H35.3693ZM34.3948 35.5119C33.6844 34.7837 32.6882 34.5114 31.608 34.5114V36.5114C32.38 36.5114 32.7645 36.7049 32.9632 36.9086L34.3948 35.5119ZM31.608 34.5114C30.5122 34.5114 29.5167 34.7505 28.7389 35.35L29.9599 36.9341C30.2731 36.6927 30.7832 36.5114 31.608 36.5114V34.5114ZM28.7389 35.35C28.1042 35.8393 27.5987 36.4067 27.2919 37.0675L29.1059 37.9097C29.2422 37.6161 29.5038 37.2857 29.9599 36.9341L28.7389 35.35ZM28.5352 36.5469L26.6261 35.8651L25.9534 37.7486L27.8625 38.4304L28.5352 36.5469ZM27.2089 37.2007C27.4967 36.5293 27.8576 36.0578 28.2684 35.7374L27.0384 34.1604C26.3128 34.7263 25.7647 35.4934 25.3706 36.4129L27.2089 37.2007ZM28.2695 35.7365C28.7403 35.3683 29.2424 35.1192 29.7805 34.9791L29.2763 33.0437C28.4622 33.2558 27.7142 33.6317 27.0373 34.1612L28.2695 35.7365ZM29.7861 34.9776C30.3897 34.8166 30.9736 34.7386 31.5398 34.7386V32.7386C30.7878 32.7386 30.0307 32.8425 29.2707 33.0451L29.7861 34.9776ZM31.5398 34.7386C31.8824 34.7386 32.3016 34.7807 32.8043 34.8749L33.1729 32.9092C32.5847 32.7989 32.038 32.7386 31.5398 32.7386V34.7386ZM32.816 34.877C33.2386 34.9511 33.6547 35.1067 34.0679 35.3547L35.0969 33.6397C34.4873 33.2739 33.841 33.0262 33.1613 32.9071L32.816 34.877ZM34.0721 35.3571C34.4106 35.558 34.7231 35.8778 34.9933 36.3686L36.7454 35.4041C36.3337 34.6563 35.7883 34.0499 35.0927 33.6372L34.0721 35.3571ZM34.9933 36.3686C35.2235 36.7868 35.3807 37.4301 35.3807 38.375H37.3807C37.3807 37.2404 37.197 36.2246 36.7454 35.4041L34.9933 36.3686ZM35.3807 38.375V47H37.3807V38.375H35.3807ZM36.3807 46H34.3693V48H36.3807V46ZM35.3693 47V45.2273H33.3693V47H35.3693ZM34.3693 44.2273H34.267V46.2273H34.3693V44.2273ZM33.3655 44.7945C33.2927 44.9463 33.144 45.1614 32.8719 45.4384L34.2986 46.84C34.6628 46.4692 34.9687 46.0764 35.1686 45.66L33.3655 44.7945ZM32.8719 45.4384C32.6654 45.6486 32.36 45.8581 31.9202 46.0473L32.7105 47.8845C33.3275 47.6192 33.8687 47.2776 34.2986 46.84L32.8719 45.4384ZM31.9202 46.0473C31.55 46.2065 31.0479 46.3068 30.3807 46.3068V48.3068C31.2362 48.3068 32.0239 48.1798 32.7105 47.8845L31.9202 46.0473ZM30.6875 46.5C31.6118 46.5 32.4641 46.3183 33.196 45.8989L32.2018 44.1636C31.8428 44.3692 31.3541 44.5 30.6875 44.5V46.5ZM33.1921 45.9011C33.8824 45.5097 34.4367 44.9824 34.8145 44.3118L33.0719 43.3303C32.8928 43.6482 32.6176 43.9278 32.2056 44.1614L33.1921 45.9011ZM34.8102 44.3193C35.1773 43.6805 35.3693 42.9897 35.3693 42.2614H33.3693C33.3693 42.6239 33.2772 42.9729 33.0762 43.3227L34.8102 44.3193ZM35.3693 42.2614V40.4205H33.3693V42.2614H35.3693ZM33.6011 39.7803C33.6457 39.7267 33.6851 39.6961 33.7026 39.6835C33.7208 39.6705 33.728 39.6678 33.7176 39.673C33.7078 39.6779 33.6875 39.6872 33.6538 39.6999C33.6206 39.7123 33.578 39.7267 33.5247 39.7423L34.089 41.6611C34.2682 41.6084 34.4477 41.544 34.612 41.4619C34.766 41.3849 34.9705 41.2611 35.1375 41.0606L33.6011 39.7803ZM33.5372 39.7387C33.2959 39.8063 33.0028 39.8702 32.6538 39.9284L32.9826 41.9012C33.3835 41.8343 33.7495 41.7562 34.0764 41.6647L33.5372 39.7387ZM32.6661 39.9264C32.3044 39.982 31.9517 40.032 31.6078 40.0764L31.8638 42.06C32.2245 42.0134 32.5933 41.9611 32.9702 41.9031L32.6661 39.9264ZM31.6218 40.0747C31.2725 40.1148 30.9852 40.1496 30.7616 40.179L31.0225 42.1619C31.2307 42.1345 31.5059 42.1011 31.8498 42.0617L31.6218 40.0747ZM30.7627 40.1789C30.1815 40.2547 29.6285 40.3791 29.1064 40.5553L29.7459 42.4503C30.1328 42.3197 30.5571 42.2226 31.0214 42.1621L30.7627 40.1789ZM29.1135 40.553C28.5282 40.7456 28.0111 41.0536 27.601 41.4973L29.0695 42.855C29.2161 42.6964 29.4264 42.5555 29.7388 42.4527L29.1135 40.553ZM27.6004 41.4979C27.1145 42.0242 26.9261 42.6945 26.9261 43.3864H28.9261C28.9261 43.0555 29.0105 42.9189 29.07 42.8544L27.6004 41.4979ZM26.9261 43.3864C26.9261 44.3707 27.3124 45.226 28.1325 45.7938L29.2709 44.1494C29.0569 44.0013 28.9261 43.7997 28.9261 43.3864H26.9261ZM28.1429 45.8009C28.8703 46.2911 29.741 46.5 30.6875 46.5V44.5C30.0317 44.5 29.5786 44.3566 29.2606 44.1423L28.1429 45.8009ZM42.0632 47V48H43.0632V47H42.0632ZM40.0518 47H39.0518V48H40.0518V47ZM40.0518 33.9091V32.9091H39.0518V33.9091H40.0518ZM41.995 33.9091H42.995V32.9091H41.995V33.9091ZM41.995 35.9545H40.995V36.9545H41.995V35.9545ZM42.1655 35.9545V36.9545H42.8053L43.0734 36.3736L42.1655 35.9545ZM43.5632 34.3523L44.1055 35.1925L44.1109 35.189L43.5632 34.3523ZM48.3104 34.2841L47.8305 35.1614L47.8363 35.1646L48.3104 34.2841ZM49.8615 35.9205L48.9685 36.3704L48.9699 36.3732L49.8615 35.9205ZM50.4155 47V48H51.4155V47H50.4155ZM48.4041 47H47.4041V48H48.4041V47ZM47.603 36.4148L46.8676 37.0925L46.871 37.0961L47.603 36.4148ZM43.6825 35.9631L43.2002 35.087L43.196 35.0894L43.6825 35.9631ZM42.4979 37.1818L41.6189 36.7049L41.6189 36.7049L42.4979 37.1818ZM41.0632 39.125V47H43.0632V39.125H41.0632ZM42.0632 46H40.0518V48H42.0632V46ZM41.0518 47V33.9091H39.0518V47H41.0518ZM40.0518 34.9091H41.995V32.9091H40.0518V34.9091ZM40.995 33.9091V35.9545H42.995V33.9091H40.995ZM41.995 36.9545H42.1655V34.9545H41.995V36.9545ZM43.0734 36.3736C43.2994 35.8839 43.6372 35.4948 44.1055 35.1925L43.0209 33.5121C42.2393 34.0166 41.6452 34.6956 41.2575 35.5355L43.0734 36.3736ZM44.1109 35.189C44.5282 34.9158 45.1279 34.7386 45.9837 34.7386V32.7386C44.8622 32.7386 43.8483 32.9705 43.0156 33.5156L44.1109 35.189ZM45.9837 34.7386C46.7309 34.7386 47.336 34.891 47.8305 35.1614L48.7903 33.4068C47.9552 32.95 47.0092 32.7386 45.9837 32.7386V34.7386ZM47.8363 35.1646C48.3048 35.4168 48.6829 35.8038 48.9685 36.3704L50.7545 35.4705C50.3014 34.5712 49.6455 33.8673 48.7845 33.4036L47.8363 35.1646ZM48.9699 36.3732C49.2468 36.9185 49.4155 37.671 49.4155 38.6818H51.4155C51.4155 37.4654 51.2149 36.3769 50.7531 35.4677L48.9699 36.3732ZM49.4155 38.6818V47H51.4155V38.6818H49.4155ZM50.4155 46H48.4041V48H50.4155V46ZM49.4041 47V38.8182H47.4041V47H49.4041ZM49.4041 38.8182C49.4041 37.618 49.0896 36.5442 48.335 35.7335L46.871 37.0961C47.1846 37.433 47.4041 37.9615 47.4041 38.8182H49.4041ZM48.3383 35.7371C47.5803 34.9146 46.5598 34.5455 45.4041 34.5455V36.5455C46.1121 36.5455 46.5575 36.7559 46.8676 37.0925L48.3383 35.7371ZM45.4041 34.5455C44.6127 34.5455 43.8697 34.7185 43.2002 35.0871L44.1648 36.8391C44.5067 36.6508 44.9114 36.5455 45.4041 36.5455V34.5455ZM43.196 35.0894C42.5198 35.4659 41.9933 36.0148 41.6189 36.7049L43.3768 37.6587C43.5819 37.2807 43.8453 37.017 44.169 36.8368L43.196 35.0894ZM41.6189 36.7049C41.2321 37.4179 41.0632 38.2385 41.0632 39.125H43.0632C43.0632 38.4888 43.1841 38.0139 43.3768 37.6587L41.6189 36.7049ZM55.9659 42.2273L54.966 42.241L54.9968 44.4883L56.6455 42.9608L55.9659 42.2273ZM55.9318 39.7386V38.7386H54.918L54.9319 39.7523L55.9318 39.7386ZM56.3409 39.7386V40.7386H56.7603L57.0542 40.4395L56.3409 39.7386ZM62.0682 33.9091V32.9091H61.6488L61.3548 33.2083L62.0682 33.9091ZM64.5568 33.9091L65.2678 34.6123L66.9522 32.9091H64.5568V33.9091ZM58.4545 40.0795V41.0795H58.872L59.1656 40.7827L58.4545 40.0795ZM58.2841 40.0795V39.0795H57.8921L57.6045 39.346L58.2841 40.0795ZM54.0909 47H53.0909V48H54.0909V47ZM54.0909 29.5455V28.5455H53.0909V29.5455H54.0909ZM56.1023 29.5455H57.1023V28.5455H56.1023V29.5455ZM56.1023 47V48H57.1023V47H56.1023ZM62.4091 47L61.6242 47.6196L61.9245 48H62.4091V47ZM57.2955 40.5227L56.5969 39.8072L55.9528 40.4359L56.5106 41.1424L57.2955 40.5227ZM58.7273 39.125L59.5111 38.504L58.8224 37.6347L58.0287 38.4094L58.7273 39.125ZM64.9659 47V48H67.0339L65.7497 46.379L64.9659 47ZM56.9658 42.2136L56.9317 39.7249L54.9319 39.7523L54.966 42.241L56.9658 42.2136ZM55.9318 40.7386H56.3409V38.7386H55.9318V40.7386ZM57.0542 40.4395L62.7815 34.6099L61.3548 33.2083L55.6276 39.0378L57.0542 40.4395ZM62.0682 34.9091H64.5568V32.9091H62.0682V34.9091ZM63.8458 33.2059L57.7435 39.3764L59.1656 40.7827L65.2678 34.6123L63.8458 33.2059ZM58.4545 39.0795H58.2841V41.0795H58.4545V39.0795ZM57.6045 39.346L55.2863 41.4937L56.6455 42.9608L58.9637 40.8131L57.6045 39.346ZM55.0909 47V29.5455H53.0909V47H55.0909ZM54.0909 30.5455H56.1023V28.5455H54.0909V30.5455ZM55.1023 29.5455V47H57.1023V29.5455H55.1023ZM56.1023 46H54.0909V48H56.1023V46ZM63.194 46.3804L58.0803 39.9031L56.5106 41.1424L61.6242 47.6196L63.194 46.3804ZM57.994 41.2383L59.4258 39.8406L58.0287 38.4094L56.5969 39.8072L57.994 41.2383ZM57.9434 39.746L64.1821 47.621L65.7497 46.379L59.5111 38.504L57.9434 39.746ZM64.9659 46H62.4091V48H64.9659V46ZM67.1456 47H66.1456V48H67.1456V47ZM67.1456 33.9091V32.9091H66.1456V33.9091H67.1456ZM69.157 33.9091H70.157V32.9091H69.157V33.9091ZM69.157 47V48H70.157V47H69.157ZM67.1541 31.3267L66.4619 32.0484L66.4692 32.0553L67.1541 31.3267ZM67.1541 29.4006L66.4692 28.6719L66.4619 28.6789L67.1541 29.4006ZM69.174 29.4006L68.4817 30.1223L68.4891 30.1292L69.174 29.4006ZM69.174 31.3267L68.4891 30.598L68.4818 30.605L69.174 31.3267ZM68.1456 47V33.9091H66.1456V47H68.1456ZM67.1456 34.9091H69.157V32.9091H67.1456V34.9091ZM68.157 33.9091V47H70.157V33.9091H68.157ZM69.157 46H67.1456V48H69.157V46ZM68.1683 30.7273C68.0292 30.7273 67.9365 30.6897 67.839 30.5981L66.4692 32.0553C66.9399 32.4978 67.5233 32.7273 68.1683 32.7273V30.7273ZM67.8463 30.605C67.7582 30.5205 67.7365 30.4575 67.7365 30.3636H65.7365C65.7365 31.0198 65.9932 31.5989 66.4619 32.0484L67.8463 30.605ZM67.7365 30.3636C67.7365 30.2698 67.7582 30.2068 67.8463 30.1222L66.4619 28.6789C65.9932 29.1284 65.7365 29.7075 65.7365 30.3636H67.7365ZM67.839 30.1292C67.9365 30.0375 68.0292 30 68.1683 30V28C67.5233 28 66.9399 28.2295 66.4692 28.6719L67.839 30.1292ZM68.1683 30C68.307 30 68.3929 30.037 68.4818 30.1222L69.8662 28.6789C69.3983 28.23 68.8137 28 68.1683 28V30ZM68.4891 30.1292C68.5811 30.2157 68.6001 30.2767 68.6001 30.3636H70.6001C70.6001 29.7006 70.3351 29.1195 69.8589 28.6719L68.4891 30.1292ZM68.6001 30.3636C68.6001 30.4506 68.5811 30.5116 68.4891 30.5981L69.8589 32.0553C70.3351 31.6078 70.6001 31.0267 70.6001 30.3636H68.6001ZM68.4818 30.605C68.3929 30.6903 68.307 30.7273 68.1683 30.7273V32.7273C68.8137 32.7273 69.3983 32.4972 69.8662 32.0484L68.4818 30.605ZM74.8523 47V48H75.8523V47H74.8523ZM72.8409 47H71.8409V48H72.8409V47ZM72.8409 33.9091V32.9091H71.8409V33.9091H72.8409ZM74.7841 33.9091H75.7841V32.9091H74.7841V33.9091ZM74.7841 35.9545H73.7841V36.9545H74.7841V35.9545ZM74.9545 35.9545V36.9545H75.5944L75.8625 36.3736L74.9545 35.9545ZM76.3523 34.3523L76.8946 35.1925L76.8999 35.189L76.3523 34.3523ZM81.0994 34.2841L80.6195 35.1614L80.6253 35.1646L81.0994 34.2841ZM82.6506 35.9205L81.7575 36.3704L81.7589 36.3732L82.6506 35.9205ZM83.2045 47V48H84.2045V47H83.2045ZM81.1932 47H80.1932V48H81.1932V47ZM80.392 36.4148L79.6567 37.0925L79.66 37.0961L80.392 36.4148ZM76.4716 35.9631L75.9893 35.087L75.9851 35.0894L76.4716 35.9631ZM75.2869 37.1818L74.408 36.7049L74.408 36.7049L75.2869 37.1818ZM73.8523 39.125V47H75.8523V39.125H73.8523ZM74.8523 46H72.8409V48H74.8523V46ZM73.8409 47V33.9091H71.8409V47H73.8409ZM72.8409 34.9091H74.7841V32.9091H72.8409V34.9091ZM73.7841 33.9091V35.9545H75.7841V33.9091H73.7841ZM74.7841 36.9545H74.9545V34.9545H74.7841V36.9545ZM75.8625 36.3736C76.0885 35.8839 76.4262 35.4948 76.8946 35.1925L75.81 33.5121C75.0283 34.0166 74.4342 34.6956 74.0466 35.5355L75.8625 36.3736ZM76.8999 35.189C77.3172 34.9158 77.9169 34.7386 78.7727 34.7386V32.7386C77.6513 32.7386 76.6373 32.9705 75.8046 33.5156L76.8999 35.189ZM78.7727 34.7386C79.52 34.7386 80.1251 34.891 80.6195 35.1614L81.5793 33.4068C80.7442 32.95 79.7982 32.7386 78.7727 32.7386V34.7386ZM80.6253 35.1646C81.0938 35.4168 81.472 35.8038 81.7575 36.3704L83.5436 35.4705C83.0905 34.5712 82.4346 33.8673 81.5735 33.4036L80.6253 35.1646ZM81.7589 36.3732C82.0359 36.9185 82.2045 37.671 82.2045 38.6818H84.2045C84.2045 37.4654 84.0039 36.3769 83.5422 35.4677L81.7589 36.3732ZM82.2045 38.6818V47H84.2045V38.6818H82.2045ZM83.2045 46H81.1932V48H83.2045V46ZM82.1932 47V38.8182H80.1932V47H82.1932ZM82.1932 38.8182C82.1932 37.618 81.8786 36.5442 81.1241 35.7335L79.66 37.0961C79.9737 37.433 80.1932 37.9615 80.1932 38.8182H82.1932ZM81.1274 35.7371C80.3694 34.9146 79.3489 34.5455 78.1932 34.5455V36.5455C78.9011 36.5455 79.3465 36.7559 79.6567 37.0925L81.1274 35.7371ZM78.1932 34.5455C77.4018 34.5455 76.6587 34.7185 75.9893 35.0871L76.9539 36.8391C77.2958 36.6508 77.7005 36.5455 78.1932 36.5455V34.5455ZM75.9851 35.0894C75.3089 35.4659 74.7824 36.0148 74.408 36.7049L76.1659 37.6587C76.371 37.2807 76.6343 37.017 76.9581 36.8368L75.9851 35.0894ZM74.408 36.7049C74.0211 37.4179 73.8523 38.2385 73.8523 39.125H75.8523C75.8523 38.4888 75.9732 38.0139 76.1659 37.6587L74.408 36.7049ZM89.6584 51.8068L89.9952 50.8652L89.9884 50.8628L89.6584 51.8068ZM87.9112 50.8352L88.5658 50.0792L88.5651 50.0786L87.9112 50.8352ZM86.8118 49.5568L86.2372 48.7384L85.4754 49.2732L85.9543 50.0713L86.8118 49.5568ZM88.4141 48.4318L89.2095 47.8258L88.6266 47.0607L87.8394 47.6134L88.4141 48.4318ZM89.1044 49.25L89.8511 48.5848L89.845 48.578L89.1044 49.25ZM90.2464 50.0597L90.6768 49.157L90.6722 49.1548L90.2464 50.0597ZM94.7805 49.642L95.3774 50.4444L95.3774 50.4444L94.7805 49.642ZM95.8118 44.5795H96.8118V43.5795H95.8118V44.5795ZM95.6413 44.5795V43.5795H95.0843L94.7911 44.0532L95.6413 44.5795ZM95.0107 45.4659L94.2199 44.8537L94.2185 44.8556L95.0107 45.4659ZM93.8516 46.3949L94.3227 47.277L94.3263 47.275L93.8516 46.3949ZM88.9766 46.0455L88.4629 46.9035L88.4655 46.905L88.9766 46.0455ZM86.9908 43.8636L86.0985 44.3151L86.1006 44.3193L86.9908 43.8636ZM86.9737 36.8835L87.8773 37.3121L87.8782 37.3101L86.9737 36.8835ZM88.9425 34.5653L89.4867 35.4043L89.4906 35.4017L88.9425 34.5653ZM93.8857 34.1648L93.3916 35.0343L93.4034 35.0408L93.8857 34.1648ZM95.0447 35.1193L94.2432 35.7173L94.2486 35.7244L94.254 35.7315L95.0447 35.1193ZM95.6754 35.9886L94.837 36.5336L95.1327 36.9886H95.6754V35.9886ZM95.88 35.9886V36.9886H96.88V35.9886H95.88ZM95.88 33.9091V32.9091H94.88V33.9091H95.88ZM97.8232 33.9091H98.8232V32.9091H97.8232V33.9091ZM97.0561 50.1193L96.2468 49.5319L96.2415 49.5393L97.0561 50.1193ZM95.0107 51.679L94.6521 50.7454L94.6446 50.7484L95.0107 51.679ZM94.1413 44.4347L93.5886 43.6013L93.5886 43.6013L94.1413 44.4347ZM95.4112 42.8409L96.3339 43.2266L96.3339 43.2266L95.4112 42.8409ZM95.4197 37.8551L96.3502 37.4888L96.3502 37.4888L95.4197 37.8551ZM94.1584 36.1591L93.5663 36.965L93.5663 36.965L94.1584 36.1591ZM89.9652 36.1932L89.3601 35.397L89.3563 35.4L89.9652 36.1932ZM88.6953 37.9318L87.7638 37.568L87.7614 37.5743L88.6953 37.9318ZM88.7038 42.7642L87.7774 43.1408L87.7812 43.1499L88.7038 42.7642ZM89.9822 44.4006L89.4049 45.2171L89.4143 45.2236L89.9822 44.4006ZM92.1641 51.1818C91.2738 51.1818 90.5584 51.0667 89.9952 50.8652L89.3216 52.7484C90.1561 53.0469 91.1112 53.1818 92.1641 53.1818V51.1818ZM89.9884 50.8628C89.3852 50.652 88.9193 50.3853 88.5658 50.0792L87.2566 51.5912C87.835 52.092 88.5338 52.473 89.3284 52.7508L89.9884 50.8628ZM88.5651 50.0786C88.1735 49.7402 87.88 49.3936 87.6693 49.0423L85.9543 50.0713C86.289 50.6292 86.7285 51.1348 87.2574 51.5918L88.5651 50.0786ZM87.3864 50.3752L88.9887 49.2502L87.8394 47.6134L86.2372 48.7384L87.3864 50.3752ZM87.6186 49.0379C87.8229 49.306 88.0729 49.6013 88.3638 49.922L89.845 48.578C89.5791 48.285 89.3689 48.0349 89.2095 47.8258L87.6186 49.0379ZM88.3577 49.9152C88.7469 50.352 89.248 50.695 89.8207 50.9645L90.6722 49.1548C90.279 48.9698 90.0187 48.773 89.8511 48.5848L88.3577 49.9152ZM89.8161 50.9623C90.4863 51.2819 91.2884 51.4091 92.1641 51.4091V49.4091C91.4602 49.4091 90.9838 49.3034 90.6768 49.157L89.8161 50.9623ZM92.1641 51.4091C93.3848 51.4091 94.4804 51.1116 95.3774 50.4444L94.1837 48.8397C93.7057 49.1952 93.057 49.4091 92.1641 49.4091V51.4091ZM95.3774 50.4444C96.3864 49.6939 96.8118 48.5504 96.8118 47.2386H94.8118C94.8118 48.1087 94.5497 48.5674 94.1837 48.8397L95.3774 50.4444ZM96.8118 47.2386V44.5795H94.8118V47.2386H96.8118ZM95.8118 43.5795H95.6413V45.5795H95.8118V43.5795ZM94.7911 44.0532C94.6691 44.2503 94.4821 44.5151 94.2199 44.8537L95.8014 46.0781C96.0846 45.7122 96.3181 45.3861 96.4916 45.1059L94.7911 44.0532ZM94.2185 44.8556C94.0595 45.0619 93.7959 45.2887 93.3769 45.5147L94.3263 47.275C94.9186 46.9556 95.4277 46.5631 95.8028 46.0762L94.2185 44.8556ZM93.3805 45.5128C93.0802 45.6731 92.5871 45.7955 91.8232 45.7955V47.7955C92.7637 47.7955 93.6229 47.6507 94.3227 47.277L93.3805 45.5128ZM91.8232 45.7955C90.9313 45.7955 90.1616 45.5866 89.4876 45.1859L88.4655 46.905C89.4734 47.5043 90.6014 47.7955 91.8232 47.7955V45.7955ZM89.4902 45.1874C88.8318 44.7933 88.2932 44.2133 87.8809 43.408L86.1006 44.3193C86.6656 45.4231 87.4509 46.2976 88.4629 46.9035L89.4902 45.1874ZM87.8831 43.4122C87.4877 42.6307 87.2663 41.635 87.2663 40.3864H85.2663C85.2663 41.865 85.528 43.1875 86.0985 44.3151L87.8831 43.4122ZM87.2663 40.3864C87.2663 39.1619 87.4815 38.1464 87.8772 37.3121L86.0702 36.455C85.5227 37.6093 85.2663 38.929 85.2663 40.3864H87.2663ZM87.8782 37.3101C88.2789 36.4605 88.8177 35.8382 89.4867 35.4043L88.3983 33.7264C87.3854 34.3834 86.6118 35.3066 86.0693 36.457L87.8782 37.3101ZM89.4906 35.4017C90.1531 34.9676 90.9302 34.7386 91.8572 34.7386V32.7386C90.5797 32.7386 89.4137 33.0609 88.3943 33.729L89.4906 35.4017ZM91.8572 34.7386C92.6139 34.7386 93.0977 34.8672 93.3916 35.0342L94.3797 33.2953C93.6736 32.8941 92.8052 32.7386 91.8572 32.7386V34.7386ZM93.4034 35.0408C93.8191 35.2697 94.0826 35.502 94.2432 35.7173L95.8463 34.5214C95.4728 34.0207 94.9635 33.6167 94.368 33.2888L93.4034 35.0408ZM94.254 35.7315C94.5191 36.0739 94.7106 36.3393 94.837 36.5336L96.5139 35.4436C96.3448 35.1835 96.1158 34.8693 95.8355 34.5071L94.254 35.7315ZM95.6754 36.9886H95.88V34.9886H95.6754V36.9886ZM96.88 35.9886V33.9091H94.88V35.9886H96.88ZM95.88 34.9091H97.8232V32.9091H95.88V34.9091ZM96.8232 33.9091V47.375H98.8232V33.9091H96.8232ZM96.8232 47.375C96.8232 48.3507 96.6023 49.0421 96.2468 49.5319L97.8654 50.7067C98.5326 49.7875 98.8232 48.6493 98.8232 47.375H96.8232ZM96.2415 49.5393C95.8561 50.0806 95.3371 50.4824 94.6521 50.7455L95.3692 52.6125C96.4002 52.2165 97.2447 51.5785 97.8707 50.6993L96.2415 49.5393ZM94.6446 50.7484C93.9242 51.0317 93.1018 51.1818 92.1641 51.1818V53.1818C93.3172 53.1818 94.3925 52.9967 95.3767 52.6096L94.6446 50.7484ZM92.0959 45.9886C93.058 45.9886 93.9421 45.7668 94.6941 45.268L93.5886 43.6013C93.227 43.8412 92.7474 43.9886 92.0959 43.9886V45.9886ZM94.6941 45.268C95.4358 44.7761 95.9776 44.0788 96.3339 43.2266L94.4886 42.4552C94.2653 42.9894 93.9605 43.3546 93.5886 43.6013L94.6941 45.268ZM96.3339 43.2266C96.687 42.3818 96.8459 41.4144 96.8459 40.3523H94.8459C94.8459 41.222 94.715 41.9137 94.4886 42.4552L96.3339 43.2266ZM96.8459 40.3523C96.8459 39.31 96.689 38.3493 96.3502 37.4888L94.4893 38.2214C94.7187 38.8041 94.8459 39.5081 94.8459 40.3523H96.8459ZM96.3502 37.4888C96.0057 36.6138 95.4774 35.8873 94.7505 35.3532L93.5663 36.965C93.953 37.2491 94.2656 37.6532 94.4893 38.2214L96.3502 37.4888ZM94.7505 35.3532C93.9921 34.796 93.0867 34.5455 92.0959 34.5455V36.5455C92.7415 36.5455 93.2111 36.704 93.5663 36.965L94.7505 35.3532ZM92.0959 34.5455C91.0689 34.5455 90.1342 34.8087 89.3601 35.397L90.5703 36.9893C90.9326 36.714 91.4184 36.5455 92.0959 36.5455V34.5455ZM89.3563 35.4C88.6348 35.9538 88.1074 36.6885 87.7639 37.568L89.6268 38.2957C89.8514 37.7206 90.1706 37.2962 90.5741 36.9864L89.3563 35.4ZM87.7614 37.5743C87.4337 38.4304 87.2777 39.3604 87.2777 40.3523H89.2777C89.2777 39.5714 89.4001 38.8878 89.6292 38.2893L87.7614 37.5743ZM87.2777 40.3523C87.2777 41.3646 87.4359 42.3005 87.7775 43.1408L89.6302 42.3876C89.4036 41.8302 89.2777 41.1581 89.2777 40.3523H87.2777ZM87.7812 43.1499C88.1366 44 88.6754 44.7012 89.4049 45.2171L90.5596 43.5841C90.1641 43.3044 89.8507 42.9148 89.6265 42.3785L87.7812 43.1499ZM89.4143 45.2236C90.183 45.754 91.097 45.9886 92.0959 45.9886V43.9886C91.413 43.9886 90.9179 43.8312 90.5502 43.5775L89.4143 45.2236Z" fill="white"/>
<path d="M106 1L86.7143 24H53.7143H20.7143L1 1C1 1 26.1575 11.4151 32.7143 11.4151C39.271 11.4151 53.7143 1 53.7143 1C53.7143 1 67.2383 11.4151 74.7143 11.4151C82.1903 11.4151 106 1 106 1Z" fill="#EEF16B" stroke="#EEF16B"/>
</svg>
